<svg width="429" height="201" viewBox="0 0 429 201" fill="none" xmlns="http://www.w3.org/2000/svg">
<path d="M72.6897 63.7257C88.0497 63.7257 103.38 62.6364 118.412 62.0797C127.275 61.7514 132.231 50.8118 138.165 45.6195C141.54 42.6658 141.118 34.3162 142.646 30.0738C144.294 25.4935 144.454 20.304 146.395 15.9912C147.905 12.6345 157.403 4.04956 161.209 10.1387C164.507 15.4153 166.513 21.1229 166.513 27.5133C166.513 38.333 162.805 55.8214 171.085 62.4454C175.447 65.935 182.426 65.3717 187.911 65.3717C199.211 65.3717 201.461 56.1211 204.737 46.1682C208.87 33.6086 212.026 21.1659 217.905 9.40709C219.228 6.76139 218.519 4.74466 219.277 2.09146C220.102 -0.797956 226.173 9.08945 226.684 10.1387C229.452 15.8291 231.776 21.7858 234.64 27.5133C236.033 30.301 234.397 35.2143 237.292 37.0236C240.335 38.9259 239.184 47.0276 240.949 50.5575C245.089 58.8365 245.224 58.7876 255.398 58.7876C273.473 58.7876 291.549 58.7876 309.625 58.7876C324.203 58.7876 345.456 51.9891 359.005 59.6106C362.294 61.4602 370.436 63.0961 370.436 67.8407C370.436 68.8553 368.73 68.5891 368.15 68.8466C365.799 69.8916 364.849 73.8628 364.035 75.9794C360.539 85.0688 354.01 92.306 345.929 97.4691C314.268 117.696 277.737 123.695 242.23 133.681C225.607 138.356 208.856 141.072 192.117 145.112C177.359 148.675 159.359 146.027 144.292 146.027C114.686 146.027 85.5044 148.634 57.0526 140.266C48.3891 137.717 37.6907 132.337 32.4537 124.72C27.0461 116.854 19.6671 104.728 18.4626 95.0915C18.0443 91.7454 14.7161 80.1859 19.1942 80.1859C24.1365 80.1859 36.5047 82.4507 40.5924 79.2714C45.3259 75.5898 47.2247 71.5102 52.206 68.6637C55.8795 66.5646 64.4837 68.6156 66.1057 65.3717" stroke="#019BFB" stroke-width="3" stroke-linecap="round"/>
<path d="M1.91113 132.858C2.5858 126.786 6.6826 118.232 13.5247 120.056C21.6192 122.215 24.3392 131.212 33.1855 131.212" stroke="#019BFB" stroke-width="3" stroke-linecap="round"/>
<path d="M5.20299 165.779C0.574324 163.464 17.3137 153.273 19.6514 152.611C28.3458 150.147 38.1036 150.585 47.085 150.965C60.6792 151.539 74.058 160.035 88.2355 157.457C93.3968 156.519 97.7781 155.903 103.232 155.903C110.217 155.903 114.716 159.779 120.424 163.401C128.021 168.222 136.441 171.861 144.749 175.289C153.086 178.73 160.661 178.03 167.244 171.631C179.183 160.029 189.444 149.615 206.109 145.204C232.224 138.291 259.81 147.177 285.758 138.528C302.243 133.033 318.462 127.92 336.053 127.92C343.144 127.92 350.824 128.775 357.817 127.555C368.977 125.606 375.456 113.499 386.165 111.552C392.511 110.398 396.717 108.168 403.539 108.168" stroke="#019BFB" stroke-width="3" stroke-linecap="round"/>
<path d="M11.7872 182.239C-8.87126 182.239 52.7757 176.471 73.4214 175.746C85.9866 175.305 102.618 173.111 114.755 176.752C126.297 180.215 134.047 190.817 144.109 196.779C160.67 206.593 168.825 186.826 181.418 178.307C196.409 168.166 223.25 174.857 239.852 175.563C251.382 176.054 263.735 176.42 275.15 174.649C291.391 172.129 306.495 164.311 322.153 159.56C338.467 154.611 355 155.903 371.899 155.903C382.714 155.903 386.368 142.735 396.955 142.735C406.283 142.735 415.61 142.735 424.938 142.735" stroke="#019BFB" stroke-width="3" stroke-linecap="round"/>
<path d="M357.451 91.708C357.451 88.6881 356.305 85.2165 360.194 85.1239C371.584 84.8527 379.975 85.8597 390.463 90.885C400.21 95.5556 409.762 103.315 413.507 90.5192C416.648 79.7862 418.518 70.1456 426.584 62.0797" stroke="#019BFB" stroke-width="3" stroke-linecap="round"/>
</svg>
